<svg viewBox="0 0 1620 1028" xmlns="http://www.w3.org/2000/svg"><defs><style>.cls-1{fill:#e8f2fa;}.cls-2{opacity:0.5;}.cls-3{fill:#a9c2ff;}.cls-4{fill:#73b471;}.cls-5{fill:#9bd399;}.cls-6{fill:#b6cfff;}.cls-7{fill:#cedfff;}.cls-8{fill:#bbd3ff;}.cls-9{fill:#80a1e6;}.cls-10{fill:#768cee;}.cls-11{fill:#809bf5;}.cls-12{fill:#899bfa;}.cls-13{fill:#5158bf;}.cls-14{fill:#5d6cd2;}.cls-15{fill:#2a3967;}.cls-16{fill:#ffae73;}.cls-17{fill:#25468f;}.cls-18{fill:#1e3865;}.cls-19{fill:#f99352;}.cls-20{fill:#6f7deb;}.cls-21{fill:#ff912b;}.cls-22{fill:#3c4aaa;}.cls-23{fill:#fff;}.cls-24{fill:#fc7400;}.cls-25{fill:#6b98f6;}.cls-26{fill:#183a76;}.cls-27{fill:#ff7536;}.cls-28{fill:#fa8b79;}.cls-29{fill:#b0c0ff;}.cls-30{fill:#fc7600;}.cls-31{fill:#ff8111;}.cls-32{fill:#697ee3;}.cls-33{fill:#a1b3ff;}.cls-34{fill:#f28018;}.cls-35{fill:#10294c;}.cls-36{fill:#f9924f;}.cls-37{fill:#104c82;}.cls-38{fill:#ffa05e;}.cls-39{fill:#0b3563;}.cls-40{fill:#6d76ff;}</style></defs><g id="图层_2"><g id="图层_1-2"><path d="M1543.84,1025.63c-92.65,0-1442.29.34-1443.07-2.11l-.13-.31a1.69,1.69,0,0,1-.14-.46c-.51-1.22-207.94-345.42,114.54-585,126.17-93.76-7.9-155.65,92.44-260,115.31-119.93,241.15,12.75,369.37-41.64,22.66-9.6,45.39-25,68.15-48.77C797.78,32.37,870.19,7,945,1.25c143.27-10.86,304.51,50.23,387.72,139.53,16.75,18,92.92,111,32.88,238.92-37.92,80.74,120.91,157.86,177.35,250.06C1686.4,864.18,1545.14,1022.58,1543.84,1025.63Z" class="cls-1"></path><g class="cls-2"><g class="cls-2"><path d="M523,381s-10.51-89.3-55.63-142.6c-6-7.08-17.47-2.57-17.27,6.76,0,.16,0,.32,0,.47C450.67,261.57,501.18,328.76,523,381Z" class="cls-3"></path></g><g class="cls-2"><path d="M528.46,406.57s-45-111.62-121.74-161a10.34,10.34,0,0,0-14.16,2.72c-2,3-3,7.73-.67,15.09C398,283,483.64,349.11,528.46,406.57Z" class="cls-3"></path></g></g><path d="M1088.4,378.19s-40.25-25.14-19.73-56.1c0,0,16.18-18.86,32.87-23.19,0,0-10.72,47-2,48.49s8.23-53.25,8.23-53.25,44.27-19.36,61.23-17c0,0-28.81,45.13-20,44.38s41-46.29,41-46.29,44.85-6.49,50.9,20.56-6,39.94-12.69,41.34-49-.94-48.08,4.68,29.08,15.74,45.22,11.39c0,0-19.38,43.29-42.36,40.09s-29.54-18-43.78-19.7-24.84,1.75-17.85,5.95,31.26,2.59,42.39,13,20.23,17-1.38,20.52-60-.85-67-17.89Z" class="cls-4"></path><path d="M1220.24,303.33s-116.92,33.05-131.84,74.86c0,0-.22,19-12.65,40.22l-.34,8.36s13.25-27.91,20-31.54C1095.41,395.23,1071.09,357.36,1220.24,303.33Z" class="cls-4"></path><path d="M1075.75,418.41s-18.91,26.66-10.13,60.46l4.63-1.06s-2.94-36.94,7.12-55S1075.75,418.41,1075.75,418.41Z" class="cls-4"></path><path d="M925.53,377.18s-67.6,6.07-70.13-47.43c0,0,2.68-35.79,18.24-55.28,0,0,27.39,63.44,38.71,57.55s-35.54-68.47-35.54-68.47,34.61-60.79,56.16-72.8c0,0,5,77,14.52,68.47s8-88.93,8-88.93,46.15-46.48,76-20.59,26.82,51.24,20.33,58.64-57.15,41.49-51.4,47.2,46.78-7.17,61.69-26.22c0,0,14.28,66.71-14.89,83s-49.21,5-67.06,15.38-27.12,23.62-15.52,22.39,38.19-24.21,59.82-21.88,37.62,1.94,15.75,24.83S970.48,404.24,948,390.71Z" class="cls-5"></path><path d="M1014.06,176.32S907.37,316.08,925.53,377.18c0,0,15.78,22,19.44,57.32l6.67,9.92s-8.34-43.66-3.63-53.71C948,390.71,888,368.26,1014.06,176.32Z" class="cls-5"></path><path d="M945,434.5s.76,47.15,39.43,78.42l4.44-5.24s-34.61-40-38.32-69.56S945,434.5,945,434.5Z" class="cls-5"></path><path d="M290.34,904.31s-18.93-22.41-1.16-36.64c0,0,13-8,23.55-7.32,0,0-15,25.5-10.14,28s14.69-29.64,14.69-29.64,29.53-2.91,39,1.73c0,0-25.25,20.95-19.93,22.2S369,863.36,369,863.36s27.48,4.74,26,21.75-10.94,22.26-15.1,21.81-28.51-9.88-29-6.42,14.12,14.76,24.39,15.29c0,0-19.38,21.68-32.26,15.42S329,915,321,911.32s-14.88-3.71-11.56.08,17.84,7.48,22.43,15.72,8.71,13.79-4.61,11.76-35-11.92-35.94-23.25Z" class="cls-6"></path><path d="M381.48,885.57s-74.65-2.92-91.14,18.74c0,0-3.64,11.07-14.86,21.16l-1.75,4.84s12.94-13.84,17.56-14.68C291.29,915.63,284.06,888.8,381.48,885.57Z" class="cls-6"></path><path d="M275.48,925.47s-16,12-17.14,33.5l2.91.26s5.12-22.21,14.37-30.89S275.48,925.47,275.48,925.47Z" class="cls-6"></path><path d="M224.15,876.13S254.26,859,240.21,835.8c0,0-11.24-14.26-23.29-17.92,0,0,6.42,34.62,0,35.44s-4.42-39.11-4.42-39.11S180.78,798.73,168.33,800c0,0,19.68,33.81,13.25,33s-28.51-35-28.51-35-32.53-6.11-37.75,13.44,3.21,29.33,8,30.55,35.74.82,34.94,4.89S136.6,857.39,125,853.72c0,0,12.85,32.19,29.71,30.56s22.09-12.22,32.53-13,18.07,2,12.85,4.89-22.89.93-31.32,8.21-15.26,11.75.4,15,43.77,1.22,49.39-11Z" class="cls-3"></path><path d="M130.18,817.47s84.33,27.7,94,58.66c0,0-.4,13.85,8,29.74V912s-8.84-20.78-13.66-23.63C218.52,888.35,237.4,861.46,130.18,817.47Z" class="cls-3"></path><path d="M232.18,905.87s13,20,5.59,44.42l-3.35-.92s3.25-26.86-3.55-40.36S232.18,905.87,232.18,905.87Z" class="cls-3"></path><path d="M272.06,852.53s-39.7-22.55-21.17-53.16c0,0,14.82-18.79,30.7-23.62,0,0-8.47,45.64,0,46.71s5.82-51.55,5.82-51.55,41.82-20.4,58.23-18.79c0,0-25.94,44.57-17.47,43.49s37.59-46.17,37.59-46.17,42.87-8.06,49.76,17.72-4.24,38.66-10.59,40.27-47.11,1.07-46.06,6.44,28.59,14,43.94,9.13c0,0-16.94,42.42-39.17,40.27s-29.11-16.11-42.88-17.18-23.82,2.69-16.94,6.44,30.18,1.24,41.29,10.82,20.12,15.5-.53,19.79-57.7,1.61-65.11-14.5Z" class="cls-7"></path><path d="M395.93,775.21s-111.16,36.51-123.87,77.32c0,0,.53,18.26-10.58,39.2v8.06s11.64-27.39,18-31.15C279.47,868.64,254.59,833.2,395.93,775.21Z" class="cls-7"></path><path d="M261.48,891.73s-17.15,26.41-7.37,58.56l4.41-1.21s-4.29-35.4,4.68-53.21S261.48,891.73,261.48,891.73Z" class="cls-7"></path><path d="M270.72,1020c42.95,0,77.77-35.32,77.77-78.88H193C193,984.67,227.77,1020,270.72,1020Z" class="cls-8"></path><path d="M349.57,1024H191.88a9.66,9.66,0,0,1,9.6-9.73H340a9.66,9.66,0,0,1,9.6,9.73Z" class="cls-8"></path><rect height="2.42" width="159.86" y="941.11" x="190.4" class="cls-9"></rect><path d="M801.19,578.05,766.39,997.8s-3.64,25.44,15,25.49c30.68.07,152.69,0,152.69,0s-23.09-5.3-22.81-17.22c.33-14.05,40.68-432,40.68-432Z" class="cls-10"></path><path d="M945.58,1015.66c-6,0-124.16.22-154-.17-13-.17-15.3-11.74-15.41-19.24a37.72,37.72,0,0,1,.39-6.25l.91-10.91,2.3-27.8,2-24.57,2.62-31.57,2.2-26.64,24.73-298.26,150.77-4s-17,174.91-29,302.23c-1.35,14.18-2.62,27.79-3.8,40.48-.39,4.06-.75,8-1.11,11.88-1.12,12-2.13,23.11-3,32.87q-.7,7.72-1.29,14.32c-1.53,17.17-2.43,28.13-2.44,30.22a17.34,17.34,0,0,0,.29,3.39C924.19,1015.05,943.31,1015.66,945.58,1015.66Z" class="cls-3"></path><polygon points="435.06 349.46 519.82 694.86 531.43 742.16 570.91 903.04 1304.39 903.04 1158.88 349.46 435.06 349.46" class="cls-3"></polygon><polygon points="435.05 349.46 423.31 353.44 555.29 915.05 570.91 903.04 435.05 349.46" class="cls-10"></polygon><polygon points="555.29 915.05 1284.26 915.05 1304.39 903.04 570.91 903.04 555.29 915.05" class="cls-11"></polygon><rect transform="translate(1780.4 2038.92) rotate(180)" height="7.61" width="157.83" y="1015.66" x="811.28" class="cls-3"></rect><polygon points="928.99 915.05 928.18 920.87 779.75 951.29 781.78 926.72 782.75 915.05 928.99 915.05" class="cls-12"></polygon><g class="cls-2"><path d="M945.58,1015.66c-6,0-124.16.22-154-.17-13-.17-15.3-11.74-15.41-19.24l147.73-28.19c-1.53,17.17-2.43,28.13-2.44,30.22a17.34,17.34,0,0,0,.29,3.39C924.19,1015.05,943.31,1015.66,945.58,1015.66Z" class="cls-12"></path></g><polygon points="435.05 349.46 1158.87 349.46 1276.32 794.36 544.24 794.36 435.05 349.46" class="cls-12"></polygon><polygon points="1242.18 775.09 564.46 775.09 540.24 677.22 530.87 639.35 527.05 623.91 502.16 523.34 500.87 518.1 487.71 464.94 481.83 441.15 476.81 420.86 472.71 404.31 465.03 373.3 1132.98 373.3 1141.41 404.31 1145.91 420.86 1151.42 441.15 1157.88 464.94 1200.47 621.65 1200.47 621.65 1204.08 634.93 1205.76 641.09 1235.16 749.28 1242.18 775.09" class="cls-13"></polygon><polygon points="973.57 757.36 624.87 757.36 605.71 662.1 598.3 632.14 595.28 619.93 575.59 540.37 574.57 536.23 564.16 494.17 559.5 475.35 555.53 459.3 552.29 446.21 546.22 421.68 887.42 421.68 973.57 757.36" class="cls-14"></polygon><polygon points="819.24 794.36 571.16 904.34 544.24 794.36 819.24 794.36" class="cls-12"></polygon><path d="M1384.19,552.09c0-1,.79-11.66,16.82-12.22,0,0-7.88,1-9.24,4.47,0,0,5.36-4.35,9.73-3s6.94,9.16,7,11.72-2.4,10.79-5.18,11.49a8.45,8.45,0,0,1-3.36,0,38,38,0,0,1,2.15,3.9c6.4,13.32-.2,26.33-5.61,24.89-3.47-.92-4.45,5.09-4.45,5.09l-33.74-27.7S1370.67,544.77,1384.19,552.09Z" class="cls-15"></path><path d="M1292.25,718.6c2.82,2.53,10.3-6.16,11.33-7.32a.75.75,0,0,1,.11-.16l-2.27-6.44s-9.82-.38-11.45,1.27S1289.16,715.91,1292.25,718.6Z" class="cls-16"></path><path d="M1372.45,944.42l7.16,2.7s31.13-43.78,35-82.31c.68-6.88-.72-21.46-.19-24.58.25-1.45.55-3.2.9-5.21,1-5.88,2.4-13.92,4-23.09,3.66-21.08,8.41-48,12.09-67.85l-1.93-.63-20.89-6.84-4.32-13.91-15.55-4.15s-3.48,6.89-6.58,39.47c-.58,4.27-1.1,9-1.49,14.09a282.89,282.89,0,0,0,1.48,57.06c.72,5.66,3.68,27.92,3.33,34.81C1383.84,895.47,1372.45,944.42,1372.45,944.42Z" class="cls-17"></path><path d="M1380.6,772.11l33.78,68.12c.25-1.45.55-3.2.9-5.21,1-5.88,2.4-13.92,4-23.09,3.66-21.08,8.41-48,12.09-67.85l-1.93-.63-20.89-6.84-4.32-13.91-15.55-4.15s-3.48,6.89-6.58,39.47C1381.51,762.29,1381,767,1380.6,772.11Z" class="cls-18"></path><path d="M1395.46,727.29l.78-6.8c13.1,3.53,48.11-9.87,48.11-9.87s12.69,11.32,11,38.45c-.81,13.24-2.3,69.5-3.85,86.15-.56,6,3.3,21.56,4.85,25.75,15.23,41.17-2.34,91.87-2.34,91.87l-4.56-1.86s-28.86-106.12-31.83-117.37c-5.63-21.25-10.16-48.9-13.17-70.24C1404.06,763.39,1395.46,727.29,1395.46,727.29Z" class="cls-17"></path><path d="M1385.52,648.37c22.53,1.25,17.58-32.81,16.2-32.64-2.75-1.46-7.7-8.55-10.56-20.41l-1,.46-16.25,7.75s1.73,5.36,3,10.5c1,4,1.71,7.89,1.12,9-1.29.53-2,.86-2,.86v0C1375.83,624.31,1379.51,648,1385.52,648.37Z" class="cls-16"></path><path d="M1373.93,603.53s1.73,5.36,3,10.5c9.5-2.69,12.39-12.82,13.26-18.25Z" class="cls-19"></path><path d="M1371.93,609.21s22.73-5.34,19.24-19.65-2.92-24.63-17.58-21.82-16.13,9-16.11,14S1365.93,610.22,1371.93,609.21Z" class="cls-16"></path><path d="M1356.2,573.64c2.45-5.18,5.32-4.91,7.12-4,10.68-10,21.15-1.83,21.15-1.83a28,28,0,0,0,12.77,13.92s-3.49,3.62-13.61,3.54c-3.09,0-6.2-1.46-9-3.45a54.16,54.16,0,0,0,11.85,9c-12.67-2.46-21.17-17.33-22-18.92-1.07,1.61-3.12,5-3.29,7.92-.24,3.93,1.09,11.56-1.12,11.85C1360,591.65,1352.54,581.42,1356.2,573.64Z" class="cls-15"></path><path d="M1427.51,956.62h36.09s.87-5.58-1-9.81c-1.8-4.06-4.63-5.91-3.95-10.82-2.3,2.39-6,5.07-11.25,4.36-.64,1-4.13,6.68-6.27,8.24C1438.76,950.3,1428.24,949.69,1427.51,956.62Z" class="cls-18"></path><path d="M1350,956.62h36.09s1.35-5.84-1-9.81c-2.1-3.52-1.29-5.52.26-8.43a13.75,13.75,0,0,1-6.08,1.16,12.48,12.48,0,0,1-5.36-1.91c-1.56,1.79-8.21,9.44-10.29,11C1361.26,950.3,1350.75,949.69,1350,956.62Z" class="cls-18"></path><path d="M1445,667.38c-1.94-6.39-4-12.52-6-18.17a250.71,250.71,0,0,0-10-24.76c-4.74-9.89-25.93-9.27-25.93-9.27-4.08,14.92-15.29,24.22-15.29,24.22-6-3.56-10.43-16.08-10.43-16.08l-13.09,7.06h0s-4,2.45-7.58,12.75c-5.25,15.32-13.77,37.07-19.68,43.73-1.38,1.55-5.42,3.9-10.31,6.39h0c-.1.16-.18.25-.24.25a50.57,50.57,0,0,0,4,7.69c1.86,2.84,4.31,5.73,7.22,7.21,2.23-1.09,6.24-2.7,8-3.76,6.16-3.82,15.33-9.32,22.51-20.93l2,27.29,3.62,49.37c5.57,1.75,10.87,3.13,15.89,4.18a61,61,0,0,1,1.65-9.09c0,2.6,2.94,7.57,4.71,10.27,46.22,7.51,67.88-12.94,67.88-12.94C1462.13,734.69,1454.34,698.07,1445,667.38Z" class="cls-12"></path><path d="M1398.39,612.43s3.85.26,4.67,2.75c0,0-5,20.49-15.29,24.22Z" class="cls-20"></path><path d="M1387.77,639.4s-9.82-18-9.78-20.4c0,0-3.73,3.35-3.48,5.85C1374.51,624.85,1382.77,638.28,1387.77,639.4Z" class="cls-20"></path><path d="M1414.09,632.11c-.28,1-20.31,49.54-38.28,67.44-7.87,7.84,17.2,5.58,17.44,4.12S1414.09,632.11,1414.09,632.11Z" class="cls-20"></path><path d="M1370.8,712.54l1.71,27.4c54.8-12.91,50.2-101.45,50.2-101.45l-27.52,57.64-24.15,16S1371,712.28,1370.8,712.54Z" class="cls-20"></path><path d="M1326.37,693.41c0,.06,0,.09.07.09a.34.34,0,0,0,0-.1C1326.36,693.31,1326.35,693.31,1326.37,693.41Z" class="cls-3"></path><path d="M1353.48,655.68,1364.39,705c1.74,7.86-4.13,14.23-13.1,14.23h-262c-9,0-17.66-6.37-19.4-14.23L1059,655.68c-.06-.3-.12-.6-.16-.9-1.12-7.44,4.63-13.32,13.26-13.32h262c8.63,0,17,5.88,19.16,13.32C1353.34,655.08,1353.41,655.38,1353.48,655.68Z" class="cls-21"></path><polygon points="1089.87 697 1087.3 697 1080.51 666.3 1083.08 666.3 1089.87 697" class="cls-1"></polygon><polygon points="1107.58 678.97 1089.17 678.97 1087.24 670.28 1105.66 670.28 1107.58 678.97" class="cls-1"></polygon><polygon points="1116.16 691.42 1091.92 691.42 1090 682.74 1114.24 682.74 1116.16 691.42" class="cls-1"></polygon><polygon points="1148.77 697 1146.2 697 1139.41 666.3 1141.98 666.3 1148.77 697" class="cls-1"></polygon><polygon points="1152.7 678.97 1134.29 678.97 1132.37 670.28 1150.78 670.28 1152.7 678.97" class="cls-1"></polygon><polygon points="1158.37 691.42 1134.13 691.42 1132.21 682.74 1156.45 682.74 1158.37 691.42" class="cls-1"></polygon><polygon points="1207.67 697 1205.1 697 1198.31 666.3 1200.88 666.3 1207.67 697" class="cls-1"></polygon><polygon points="1197.82 678.97 1179.4 678.97 1177.48 670.28 1195.89 670.28 1197.82 678.97" class="cls-1"></polygon><polygon points="1200.57 691.42 1176.33 691.42 1174.41 682.74 1198.65 682.74 1200.57 691.42" class="cls-1"></polygon><polygon points="1245.35 668.78 1215.1 668.78 1214.52 666.18 1244.78 666.18 1245.35 668.78" class="cls-1"></polygon><polygon points="1228.13 671.23 1232.26 689.91 1223.69 689.91 1219.56 671.23 1228.13 671.23" class="cls-1"></polygon><polygon points="1240.4 671.23 1245.84 695.82 1237.28 695.82 1231.84 671.23 1240.4 671.23" class="cls-1"></polygon><polygon points="1292.98 682.95 1262.72 682.95 1262.14 680.35 1292.4 680.35 1292.98 682.95" class="cls-1"></polygon><polygon points="1272.86 672.31 1276.99 690.99 1268.42 690.99 1264.29 672.31 1272.86 672.31" class="cls-1"></polygon><polygon points="1284.48 669.36 1289.92 693.94 1281.35 693.94 1275.91 669.36 1284.48 669.36" class="cls-1"></polygon><polygon points="1340.63 697.23 1310.37 697.23 1309.79 694.63 1340.05 694.63 1340.63 697.23" class="cls-1"></polygon><polygon points="1317.78 673.28 1321.91 691.96 1313.34 691.96 1309.21 673.28 1317.78 673.28" class="cls-1"></polygon><polygon points="1328.74 667.37 1334.18 691.96 1325.62 691.96 1320.18 667.37 1328.74 667.37" class="cls-1"></polygon><path d="M1327.16,714.82c3,0,7.7-.22,10.43-1.28,0,0-8.71-.12-6.86-2.92.34-.5,4.66-.12,9.5-.12,2,0,6.87,2.75,6.62,2.88,3.5-.47,6.68-1.15,7.71-1.38a2.18,2.18,0,0,0,.38-.11L1358,721s-.65.17-1.79.39a118.7,118.7,0,0,0-14.37,4.45,14.23,14.23,0,0,1-16.16-3.52c-1.65-1.75-3-4.07-2.86-5.75C1322.94,714.75,1325.34,714.83,1327.16,714.82Z" class="cls-16"></path><path d="M1348.16,715.52l1.9,7,6.18-1.15c1.14-.23,1.79-.39,1.79-.39,3-.6,6.67-1.43,10.63-2.31h0c6.78-1.65,14.37-3.63,20.77-5.83l1.69-.61c3.78-1.42-3.53-20.9-6.84-18.48-.88.65-1.82,1.31-2.8,2-5.49,3.78-12.47,8-18.67,11.53-3,1.77-5.92,3.36-8.3,4.68C1350.71,714.15,1348.16,715.52,1348.16,715.52Z" class="cls-16"></path><path d="M1381.53,695.79s-.4,13.3,11.87,19.77c14.19-5.2,21.78-26.66,27.64-41.41.82-2,1.58-4.07,2.33-6a153.57,153.57,0,0,0,6.19-20.9c.81-3.74-15-22.61-17-18.15-3.09,7.09-6.34,16.28-9.38,25.41-1.68,5-3.31,10-4.93,14.63-.93,2.81-1.85,5.45-2.71,7.87a76.4,76.4,0,0,1-4.56,10.72c-.87,1.55-3.36,3.69-6.67,6.11C1383.45,694.44,1382.51,695.1,1381.53,695.79Z" class="cls-12"></path><polygon points="1141.41 404.31 472.71 404.31 465.03 373.3 1132.98 373.3 1141.41 404.31" class="cls-22"></polygon><path d="M506.59,389.09c.87,2.77-.86,5.05-3.87,5.07a7.7,7.7,0,0,1-7-5c-.87-2.78.87-5.05,3.88-5.07A7.7,7.7,0,0,1,506.59,389.09Z" class="cls-1"></path><path d="M529.14,388.93c.87,2.78-.86,5.05-3.87,5.07a7.7,7.7,0,0,1-7-5c-.87-2.78.87-5.05,3.88-5.07A7.69,7.69,0,0,1,529.14,388.93Z" class="cls-1"></path><path d="M551.69,388.77c.87,2.78-.86,5.05-3.87,5.07a7.7,7.7,0,0,1-7-5c-.87-2.78.87-5,3.88-5.07A7.69,7.69,0,0,1,551.69,388.77Z" class="cls-1"></path><path d="M559.5,475.35s78.71.31,135.79,44.69,48.85,84.22,96.21,94.2c77.61,16.36,29.43-67.66,130.22-58.92l51.85,202H624.87L598.3,632.14Z" class="cls-21"></path><path d="M809.47,617.1A88.45,88.45,0,0,1,791.36,615c-26.14-5.51-35.78-20.38-48-39.21-10.11-15.61-22.7-35-48.52-55.12C678.64,508,650,491,605.85,481.77c-26.44-5.55-46.15-5.69-46.35-5.69v-1.45c.19,0,20,.14,46.63,5.71,24.54,5.15,60,16.11,89.59,39.13,26,20.23,38.68,39.77,48.85,55.47,12.49,19.27,21.51,33.2,47.07,38.59,36.4,7.67,44.63-6.84,54.16-23.64,10.62-18.71,22.66-39.93,76-35.3l-.12,1.45c-52.42-4.54-64.2,16.24-74.61,34.58-4.82,8.5-9.38,16.53-17.46,21.49C824.15,615.44,817.57,617.1,809.47,617.1Z" class="cls-23"></path><path d="M577.88,549.18l20,80.88,27,127.3h348.7L956,691.26s-51.62-29.18-121.62-3.75-147.49,2-152.48-55.25C676.27,567.75,617.83,536.68,577.88,549.18Z" class="cls-24"></path><path d="M666,587.45c-20-31.44-57-47.24-87.88-37.58l-.43-1.39c31.49-9.85,69.14,6.2,89.52,38.18Z" class="cls-23"></path><polygon points="795.85 620.61 784.52 619.43 785.69 607.94 797.02 609.12 795.85 620.61" class="cls-23"></polygon><polygon points="892.8 636.61 701.9 596.39 702.28 594.51 893.18 634.73 892.8 636.61" class="cls-23"></polygon><path d="M698.84,595.11a3.27,3.27,0,1,1,2.91,3.64A3.28,3.28,0,0,1,698.84,595.11Z" class="cls-23"></path><path d="M889.74,635.33a3.27,3.27,0,1,1,2.91,3.64A3.28,3.28,0,0,1,889.74,635.33Z" class="cls-23"></path><polygon points="656.9 504.31 648.61 496.38 656.42 487.98 664.71 495.9 656.9 504.31" class="cls-23"></polygon><polygon points="687.13 528 622.39 462.58 623.73 461.23 688.46 526.64 687.13 528" class="cls-23"></polygon><path d="M620.52,459.81a3.24,3.24,0,0,1,4.6-.48,3.34,3.34,0,0,1,.48,4.66,3.23,3.23,0,0,1-4.6.49A3.35,3.35,0,0,1,620.52,459.81Z" class="cls-23"></path><path d="M685.26,525.23a3.25,3.25,0,0,1,4.6-.49,3.36,3.36,0,0,1,.48,4.67,3.25,3.25,0,0,1-4.6.49A3.35,3.35,0,0,1,685.26,525.23Z" class="cls-23"></path><polygon points="882.44 557.53 877.99 568.16 867.5 563.65 871.96 553.01 882.44 557.53" class="cls-23"></polygon><polygon points="863.91 587.74 862.2 586.94 886.44 533.18 888.16 533.98 863.91 587.74" class="cls-23"></polygon><path d="M862,590.48a3.33,3.33,0,0,1-2-4.21,3.26,3.26,0,0,1,4.15-2.07,3.33,3.33,0,0,1,2,4.21A3.26,3.26,0,0,1,862,590.48Z" class="cls-23"></path><path d="M886.25,536.72a3.33,3.33,0,0,1-2-4.21,3.26,3.26,0,0,1,4.15-2.07,3.32,3.32,0,0,1,2,4.2A3.26,3.26,0,0,1,886.25,536.72Z" class="cls-23"></path><path d="M933.58,440.32l17.72,74.3c.76,3.18-2.2,5.76-6.61,5.76H762.39c-4.41,0-8.6-2.58-9.35-5.76l-17.73-74.3c-.76-3.18,2.2-5.76,6.61-5.76h182.3C928.63,434.56,932.82,437.14,933.58,440.32Z" class="cls-7"></path><polygon points="781.52 483.78 762.12 483.78 757.43 464.1 776.83 464.1 781.52 483.78" class="cls-17"></polygon><polygon points="793.57 493.63 774.17 493.63 769.48 473.94 788.88 473.94 793.57 493.63" class="cls-17"></polygon><polygon points="826.82 483.78 807.42 483.78 802.72 464.1 822.13 464.1 826.82 483.78" class="cls-17"></polygon><polygon points="838.87 493.63 819.47 493.63 814.77 473.94 834.17 473.94 838.87 493.63" class="cls-25"></polygon><path d="M839.9,494.47H818.84l-5.1-21.37H834.8Zm-19.81-1.69h17.75l-4.29-18H815.8Z" class="cls-26"></path><polygon points="872.12 483.78 852.71 483.78 848.02 464.1 867.42 464.1 872.12 483.78" class="cls-25"></polygon><path d="M873.14,484.62h-21L847,463.26h21.06Zm-19.8-1.68h17.75l-4.3-18H849.05Z" class="cls-17"></path><polygon points="884.16 493.63 864.76 493.63 860.07 473.94 879.47 473.94 884.16 493.63" class="cls-25"></polygon><path d="M885.19,494.47H864.13L859,473.1H880.1Zm-19.8-1.69h17.75l-4.3-18H861.1Z" class="cls-17"></path><polygon points="873.14 484.58 861.71 484.58 858.98 473.1 870.4 473.1 873.14 484.58" class="cls-17"></polygon><polygon points="917.41 483.78 898.01 483.78 893.32 464.1 912.72 464.1 917.41 483.78" class="cls-17"></polygon><polygon points="929.46 493.63 910.06 493.63 905.36 473.94 924.76 473.94 929.46 493.63" class="cls-17"></polygon><polygon points="916.86 483.31 907.98 483.31 905.84 474.37 914.73 474.37 916.86 483.31" class="cls-25"></polygon><path d="M429.21,675H362c-9,0-17.83-7.37-19.81-16.46L291.67,427c-2-9.09,3.67-16.45,12.63-16.45h67.18c9,0,17.83,7.36,19.81,16.45l50.55,231.5C443.82,667.58,438.17,675,429.21,675Z" class="cls-22"></path><rect height="0.44" width="99.62" y="462.59" x="299.49" class="cls-3"></rect><rect height="0.44" width="99.63" y="517.14" x="311.4" class="cls-3"></rect><rect height="0.44" width="99.63" y="571.69" x="323.31" class="cls-3"></rect><path d="M360.43,446.51c.13-1.17-5-21.24-5-21.24l18.26,15-9-.32Z" class="cls-23"></path><path d="M415.47,651.23H380.09l-7.83-35.84h35.38Zm-33.8-2H413l-7-31.85H374.71Z" class="cls-7"></path><polygon points="390.05 630.85 356.68 630.85 349.29 597 382.66 597 390.05 630.85" class="cls-27"></polygon><polygon points="382 651.12 379.75 649.34 405.73 615.5 407.98 617.27 382 651.12" class="cls-27"></polygon><path d="M315.51,446.51c.13-1.17-5-21.24-5-21.24l18.26,15-9-.32Z" class="cls-7"></path><polygon points="322.59 486.27 319.9 486.27 318.83 481.4 337.08 481.4 338.1 486.08 335.41 486.08 334.99 484.13 322.12 484.13 322.59 486.27" class="cls-7"></polygon><polygon points="332.96 498.16 330.27 498.16 326.91 482.76 329.6 482.76 332.96 498.16" class="cls-7"></polygon><polygon points="335.38 499.13 328.27 499.13 327.68 496.4 334.79 496.4 335.38 499.13" class="cls-7"></polygon><polygon points="371.78 500.83 369.35 499.06 382.17 478.6 384.6 480.37 371.78 500.83" class="cls-7"></polygon><path d="M341,548.52c-5.13,0-10.23-4.24-11.37-9.44s2.11-9.45,7.25-9.45,10.23,4.24,11.37,9.45S346.1,548.52,341,548.52Zm-3.58-16.39c-3.77,0-6.17,3.11-5.33,7a9.08,9.08,0,0,0,8.37,6.95c3.77,0,6.17-3.12,5.33-6.95A9.07,9.07,0,0,0,337.39,532.13Z" class="cls-7"></path><path d="M358.69,556.72a1.47,1.47,0,0,1-1-.39l-12.38-10.57A1.3,1.3,0,0,1,345,544a1.22,1.22,0,0,1,1.74,0l12.38,10.57a1.32,1.32,0,0,1,.35,1.77A1,1,0,0,1,358.69,556.72Z" class="cls-7"></path><polygon points="385.5 528.76 390.11 537.32 398.98 537.32 392.96 542.61 397.56 551.16 389.24 545.87 383.22 551.16 384.09 542.61 375.76 537.32 384.63 537.32 385.5 528.76" class="cls-7"></polygon><path d="M1242,453.88s.24,13.48-1.75,13.23-4.7-11.31-4.72-11.14.9,11.62-1.61,12.2-5.05-12.13-5.05-12.13,1.68,10.9-.08,11.19-4.54-10.28-5.27-10.31,2.34,9.06.19,9.52-6.94-12.33-5.31-14,4.15.12,4.15.12,3.12-2.35,5.52-1c0,0,5.63-1.14,7.32,1.39A4.4,4.4,0,0,1,1242,453.88Z" class="cls-28"></path><path d="M1278.23,402.24,1323.82,569c2,7.13-2.5,12.92-9.94,12.92H1006.16c-7.44,0-15-5.79-17-12.92L943.57,402.24c-2-7.13,2.5-12.92,9.94-12.92h307.72C1268.67,389.32,1276.28,395.11,1278.23,402.24Z" class="cls-7"></path><polygon points="1038.92 477.47 999.17 477.47 988.15 437.16 1027.89 437.16 1038.92 477.47" class="cls-29"></polygon><polygon points="1026.48 467.6 1006.21 467.6 1000.59 447.03 1020.86 447.03 1026.48 467.6" class="cls-13"></polygon><polygon points="1000.44 478.4 997.91 476.54 1026.63 436.23 1029.16 438.08 1000.44 478.4" class="cls-27"></polygon><polygon points="1010.63 455.62 970.89 455.62 959.87 415.3 999.61 415.3 1010.63 455.62" class="cls-27"></polygon><polygon points="1033.21 525.04 1001.26 525.04 992.4 492.63 1024.35 492.63 1033.21 525.04" class="cls-27"></polygon><polygon points="1064.86 525.04 1032.91 525.04 1024.05 492.63 1056 492.63 1064.86 525.04" class="cls-30"></polygon><polygon points="1096.81 525.04 1064.86 525.04 1056 492.63 1087.95 492.63 1096.81 525.04" class="cls-31"></polygon><polygon points="1128.76 525.04 1096.81 525.04 1087.95 492.63 1119.9 492.63 1128.76 525.04" class="cls-25"></polygon><polygon points="1160.71 525.04 1128.76 525.04 1119.9 492.63 1151.85 492.63 1160.71 525.04" class="cls-12"></polygon><polygon points="1192.66 525.04 1160.71 525.04 1151.85 492.63 1183.8 492.63 1192.66 525.04" class="cls-32"></polygon><polygon points="1224.61 525.04 1192.66 525.04 1183.8 492.63 1215.75 492.63 1224.61 525.04" class="cls-13"></polygon><polygon points="1256.56 525.04 1224.61 525.04 1215.75 492.63 1247.7 492.63 1256.56 525.04" class="cls-17"></polygon><polygon points="1042.07 557.45 1010.12 557.45 1001.26 525.04 1033.21 525.04 1042.07 557.45" class="cls-33"></polygon><polygon points="1073.72 557.45 1041.77 557.45 1032.91 525.04 1064.86 525.04 1073.72 557.45" class="cls-12"></polygon><polygon points="1105.67 557.45 1073.72 557.45 1064.86 525.04 1096.81 525.04 1105.67 557.45" class="cls-13"></polygon><polygon points="1137.62 557.45 1105.67 557.45 1096.81 525.04 1128.76 525.04 1137.62 557.45" class="cls-17"></polygon><path d="M1258.13,429.21H1090.77a6,6,0,0,1-5.35-4.24h0c-.63-2.34.73-4.24,3-4.24h167.36a6,6,0,0,1,5.34,4.24h0C1261.79,427.3,1260.43,429.21,1258.13,429.21Z" class="cls-31"></path><path d="M1264,450.63H1096.62a6,6,0,0,1-5.34-4.24h0c-.64-2.34.72-4.24,3-4.24h167.36a5.94,5.94,0,0,1,5.34,4.24h0C1267.64,448.72,1266.28,450.63,1264,450.63Z" class="cls-25"></path><path d="M1269.84,472.05H1102.48a6,6,0,0,1-5.34-4.24h0c-.64-2.34.72-4.24,3-4.24h167.36a6,6,0,0,1,5.34,4.24h0C1273.5,470.14,1272.14,472.05,1269.84,472.05Z" class="cls-13"></path><path d="M1062.31,418.73h5a5.06,5.06,0,0,1,5.2,3.65c.51,1.89-.29,3-1.75,3.48l4.24,4.34h-2.34l-3.9-4h-2.46l1.09,4h-2Zm6.45,5.68c1.42,0,2.12-.75,1.79-2a2.69,2.69,0,0,0-2.86-1.9h-2.89l1,3.85Z" class="cls-13"></path><path d="M1068.12,446.11c-.87-3.21.8-5.93,4.21-5.93a7.71,7.71,0,0,1,4.77,1.56l-.84,1.52a5.72,5.72,0,0,0-3.5-1.23c-2.09,0-3.16,1.86-2.55,4.08a5.33,5.33,0,0,0,5,4.1,3.55,3.55,0,0,0,2.49-.87l-.58-2.15h-2.9l-.47-1.75h4.81l1.31,4.82a5.44,5.44,0,0,1-4.22,1.78A7.92,7.92,0,0,1,1068.12,446.11Z" class="cls-13"></path><path d="M1074.44,463.09h5.07a5.09,5.09,0,0,1,3.23,1A3.62,3.62,0,0,1,1084,466a2,2,0,0,1-.91,2.56,4,4,0,0,1,3,2.82c.56,2-.8,3.14-3.32,3.14h-5.23Zm6,4.84c1.28,0,2-.51,1.7-1.59a2.23,2.23,0,0,0-2.39-1.46h-2.86l.84,3.05Zm1.91,4.84c1.35,0,2-.54,1.74-1.6s-1.18-1.54-2.75-1.54h-3.15l.86,3.14Z" class="cls-13"></path><path d="M640.44,422.49a3.21,3.21,0,0,0-.56,3.41s0,0,0,0c.81,2.27,3.49,4.81,6.6,7.35.4.32.75.62,1.06.89l.24.22.18.17c2.91,2.71,1.81,3.34,7,8.84,6,6.28,10,6.39,11.21,5.82,1-.49-1-3.81-3.24-7.56l-.32-.54c-.3-.5-.59-1-.88-1.5-2.6-4.51-1.94-6.62-1.32-13.32.5-5.45,8.35-30.43,8.35-30.43l-11.39-2s-3.44,19.89-7.22,23c-2,1.63-4.28,1.65-6.23,2.86l-.4.26A14.9,14.9,0,0,0,640.44,422.49Z" class="cls-16"></path><path d="M640.44,422.49a3.21,3.21,0,0,0-.56,3.41s0,0,0,0c1,2.27,3.6,4.8,6.61,7.33.4.33.74.63,1,.91l.24.22.18.17c2.91,2.71,1.81,3.34,7,8.84,6,6.28,10,6.39,11.21,5.82,1-.49-1-3.81-3.24-7.56a25.31,25.31,0,0,1-10.6-7.92c-3.45-4.47-5.79-10.16-8.14-13.65l-.67-.13A14.9,14.9,0,0,0,640.44,422.49Z" class="cls-18"></path><path d="M732.33,415.27c.71,3.57,5.72,3,11.32,1.58s4.27.27,12.25-.63,10.39-3.91,10.63-5.11-3.72-1.45-7.95-1.94L757,409c-4.77-.61-8.26-3.73-12.6-6.3-4.1-2.43-10.23-12.33-10.23-12.33l-10.93.88s5.74,8.84,8,12.69c1.3,2.26,1.23,5.25,1.07,7.56A14.16,14.16,0,0,0,732.33,415.27Z" class="cls-16"></path><path d="M743.65,416.85c5.61-1.38,4.27.27,12.25-.63s10.39-3.91,10.63-5.11-3.72-1.45-7.95-1.94l0,.08a22.26,22.26,0,0,1-11.42,3.6c-5.41.14-11.13-1.44-14.87-1.37a14.16,14.16,0,0,0,.08,3.79C733,418.84,738.05,418.24,743.65,416.85Z" class="cls-18"></path><path d="M690.43,344.35l-10.22,27.9-13.35,36.43a21.43,21.43,0,0,1-7.09-.66,30.33,30.33,0,0,1-6.85-3.38s3.7-39.12,10.62-61.58c1.77-5.76,3.75-10.42,5.94-13C680.2,317.17,690.43,344.35,690.43,344.35Z" class="cls-34"></path><path d="M680,300c-5.82-1.91-21,0-37.47,3A11.12,11.12,0,0,1,631,297.75h0l-41.44-3.29s-13.68,30.77-6.19,50.37c1.1,2.88,3.51,4.68,7.24,4.74h0l33.05,0c20.61,0,43.62-14.37,46.59-15,4.88-1,6.82,8.89,11.7,19.27s45.79,46,45.79,46,6.29.06,8.89-.93a8.72,8.72,0,0,0,3.81-2.44S695.14,305,680,300Z" class="cls-21"></path><path d="M626.64,174.3a14.57,14.57,0,0,0-7.92-2.09,22.15,22.15,0,0,1-3.82-.23c-15.82-2.36-25.34,21-25.9,28-1,12.93-7.77,14.9-17.26,23-19,16.23-13.45,35.09-3,42.1,6.24,4.21,17.24,0,17.24,0,.16.11,30.1-17,44.85-25.22C652.92,236.66,635.52,179.67,626.64,174.3Z" class="cls-35"></path><path d="M618.43,232.84c.06,0-7.27,2.58-12.16.38-4.61-2.07-8.1-9.76-8-9.76,2.09-.1,4.39-2,6.17-14.16l.89.32,15,5.48s-1.09,4.89-1.79,9.54C617.92,228.54,617.61,232.29,618.43,232.84Z" class="cls-16"></path><path d="M620.31,215.1s-.6,2.64-1.48,7.56c-8.62-1.57-12.32-8.31-13.53-13Z" class="cls-36"></path><path d="M622.54,220s-20.53-2.79-18.62-15.74.55-22,13.74-20.79,15,6.57,15.4,11.05S627.93,220.35,622.54,220Z" class="cls-16"></path><path d="M632.32,187.37s-13.15,11.49-22.09,12.42-12.33-2-12.33-2a35.36,35.36,0,0,0,8.44-11.6,6.31,6.31,0,0,1,5.19-3.76C617.91,181.88,630,181.63,632.32,187.37Z" class="cls-35"></path><path d="M624.1,186.34s4.4,4.31,5.78,7.51,1.74,10.47.67,13.41c0,0,6.86-13.52,3-20.08C629.41,180.21,624.1,186.34,624.1,186.34Z" class="cls-35"></path><path d="M635.72,263.52c-.62,42.17-.17,33.36-4.72,37.36-1.1,1-4.18,1.54-8.23,1.81-12.75.86-35.15-1.27-36-3.66-2.94-8.27-.87-10.84-3.32-23.5-.26-1.34-.57-2.8-.94-4.39-2-8.69-4-11.65,3.22-25.62,6.58-12.65,13.41-22.92,14-22.55,17.36,10.46,18.76,1.67,18.76,1.67S636,243,635.72,263.52Z" class="cls-12"></path><path d="M680.21,372.25l-13.35,36.43a21.43,21.43,0,0,1-7.09-.66,30.33,30.33,0,0,1-6.85-3.38s3.7-39.12,10.62-61.58Z" class="cls-21"></path><path d="M618.52,224.64s17.86,3.07,20,10.87,9,55.16,9,55.16-5,5-9.23.73S625,247.1,625,247.1Z" class="cls-12"></path><path d="M622.77,302.69c-12.75.86-35.15-1.27-36-3.66-2.94-8.27-.87-10.84-3.32-23.5L589.6,258s-1,19.56,4.67,24.7,23.27,9.93,26,14.23A15.81,15.81,0,0,1,622.77,302.69Z" class="cls-20"></path><path d="M608.17,294.46s12.57-2.84,14.6-1.7,7,5.25,7.61,6.68-4.52-1.08-6.19-1.54c-1.08-.29-3.93.71-5.34,1.19-5.94,2-9.57,1-9.57,1Z" class="cls-16"></path><path d="M599.74,223S582.86,224,577,232.29c-8.23,11.64-24.55,61.25-15.2,67.87,10.53,7.45,47.94,1.95,47.94,1.95s1.25-5.9-.48-8.76-29.88-7.47-31.18-8.79,16.24-25.69,16.24-29.65S599.74,223,599.74,223Z" class="cls-12"></path><path d="M623.38,296.31s2.63,3.44,3.5,3.85a2.46,2.46,0,0,0,1.42.31l-1.78-3.24Z" class="cls-16"></path><path d="M622.77,292.76l7.66,3.77a1.37,1.37,0,0,1-1.27.5,18.56,18.56,0,0,1-3.32-.93Z" class="cls-16"></path><polygon points="688.18 301.63 608.17 301.63 608.17 303.42 687.47 303.42 688.18 301.63" class="cls-35"></polygon><polygon points="626.88 303.42 687.47 303.42 705.7 257.44 645.2 257.44 626.88 303.42" class="cls-35"></polygon><path d="M672.18,280.43a2.13,2.13,0,0,0-2.06-2.93,4.14,4.14,0,0,0-3.71,2.93,2.12,2.12,0,0,0,2.05,2.92A4.15,4.15,0,0,0,672.18,280.43Z" class="cls-1"></path><polygon points="666.18 584.13 672.4 589.62 666.99 595.92 660.77 590.43 666.18 584.13" class="cls-23"></polygon><path d="M586.7,695.57c-1.24-4.17-1.86-4.55-1.86-4.55s-38.52,4.87-45.06,4.44c-3.88-.25-50.15-15.9-50.15-15.9l-28.1,27.33s69.68,11.64,79.5,10.88c16.23-1.26,41-15.79,41-15.79S587.67,698.86,586.7,695.57Z" class="cls-34"></path><path d="M481.4,1007.55s.53,13.25,3,16.46l34.88.21c-.25-1.37-.39-4.52-5.22-5.38a23.42,23.42,0,0,1-16.93-13.56C493.28,996.69,481.4,1007.55,481.4,1007.55Z" class="cls-37"></path><path d="M413,1005.64s-2.43,17.6.87,17.9c.44,0,14.06.27,19.95.37,6.94.11,18.33-.13,18.33-.13a1.84,1.84,0,0,0,1.64-2.77,7.33,7.33,0,0,0-5.24-3.41c-6.07-1.19-16.19-5.71-19.74-13.94C425,995,413,1005.64,413,1005.64Z" class="cls-37"></path><path d="M499.53,825.34s-9.7,34.42-37.49,94.2-29,88.58-29,88.58a24.13,24.13,0,0,1-9.79.91,26,26,0,0,1-10.3-3.39s1.8-71.15,14.93-101.31,15.81-112.71,15.81-112.71Z" class="cls-20"></path><path d="M515.1,795.72a871,871,0,0,1-8.32,118.75c-9.09,65.44-4.84,95.88-4.84,95.88s-2.41,1.78-9.82,1.75c-8.68,0-13.12-3.67-13.12-3.67S466,943,469.71,910.2,451.9,797.8,451.9,797.8Z" class="cls-12"></path><path d="M494,662.86c-.09,4.18-.64,8.74-2.29,11l-9.25,4.92L472.18,671s3.76-8.46,2.84-20.82c-.09-.74-.46-5.48-.46-5.58l5.13,2.6,13.93,7.07a3,3,0,0,0,.09.65C493.8,656.35,494,659.42,494,662.86Z" class="cls-16"></path><path d="M442.72,802.31c3.36,15.58,75.22,8.74,74.29-.77,0-.32-.23-4.72-.49-10.65C516,778.05,515.15,758,515,756.43c0,0,0,0,0-.08-1.29-13.24-2.53-26.19-2.61-34.65a120.89,120.89,0,0,0-2.4-21.65c-1.22-6.29-2.72-12-4-16.44a18.26,18.26,0,0,0-4.9-8.05,17.74,17.74,0,0,0-5.6-3.62,13.87,13.87,0,0,0-1.74-.62c-8.46-2.49-17-5.66-20.16-4.72-8.59,2.57-18.15,18-22.67,37.55C442.48,740.75,440.52,792.15,442.72,802.31Z" class="cls-21"></path><path d="M494,662.86c-5.22-2.14-15.2-7-18-12.46-1.19-2.41.64-3.16,3.66-3.16l13.93,7.07a3,3,0,0,0,.09.65C493.8,656.35,494,659.42,494,662.86Z" class="cls-38"></path><path d="M500.32,653.44s-25,7.91-29.63-8-10.95-25.55,4.82-31.27,20.65-.6,23.46,4.32S506.71,651,500.32,653.44Z" class="cls-16"></path><path d="M498,617s-1.59,18.47-5.36,17.67-7.18-1.4-6.63,4.17.73,12.26-10.88,13.25-23.24-29.64-20.06-35.39C464.26,600.11,511.29,596.76,498,617Z" class="cls-39"></path><path d="M516.52,790.89C516,778.05,515.15,758,515,756.43c0,0,0,0,0-.08L472.58,730.6S470.93,790.71,516.52,790.89Z" class="cls-34"></path><path d="M663,586.79l7.65,6.76s-13.12,14.24-11.9,29.22l-19.58,16.77L623,625.23l13.56-22.81S651.05,601.88,663,586.79Z" class="cls-39"></path><path d="M643.1,611.15a4.31,4.31,0,0,1,6.14-.43,4.46,4.46,0,0,1,.43,6.24,4.32,4.32,0,0,1-6.15.43A4.47,4.47,0,0,1,643.1,611.15Z" class="cls-23"></path><polygon points="644.37 617.69 643.11 616.58 666.23 589.63 667.49 590.74 644.37 617.69" class="cls-23"></polygon><polygon points="635.63 643.68 619.41 629.36 622.96 625.23 639.18 639.54 635.63 643.68" class="cls-40"></polygon><path d="M458.23,834.69l-.78-.69a10.47,10.47,0,0,1-1-14.64l163-190,16.22,14.32-163,190A10.13,10.13,0,0,1,458.23,834.69Z" class="cls-39"></path><path d="M549.94,736.45s3.13-2.82,3.86-4.76a6.5,6.5,0,0,1,6-3.47c3.33.25,9.24-6.94,9.24-6.94.86,1.9,3.83,9-.41,12.64-3.47,3-11.81,8.05-16.87,11.41C546.35,748.94,549.94,736.45,549.94,736.45Z" class="cls-16"></path><path d="M550.35,735.4s-42.11,7.26-45.84,5.42c-6-2.94,2.31-46.28,2.31-46.28s.35-9.83-11-12.14c-9.83-2-19.31,5.45-19.31,5.45s-8.62,7.83-7.52,16.51c2.44,19.25,6.24,58.4,18.93,64.4,16.37,7.74,63.73-21.46,63.73-21.46a8.5,8.5,0,0,0,1.36-5.6C552.85,738.49,550.35,735.4,550.35,735.4Z" class="cls-21"></path><path d="M588.46,698.68s10.63-3.93,9.69-9.44-4.25-4.82-6.25-2.92S591,698,588.46,698.68Z" class="cls-16"></path><path d="M553.07,733.63s1.45-4.32,3-6.17,2.2-5,2.9-4-.56,4.8,0,6.23S553.07,733.63,553.07,733.63Z" class="cls-16"></path><rect height="67.09" width="190.42" y="956.62" x="1304.39" class="cls-3"></rect><rect rx="2.37" height="4.74" width="1620" y="1023.26" class="cls-18"></rect></g></g></svg>