<?xml version="1.0" standalone="no"?><!DOCTYPE svg PUBLIC "-//W3C//DTD SVG 1.1//EN" "http://www.w3.org/Graphics/SVG/1.1/DTD/svg11.dtd"><svg t="1653035867047" class="icon" viewBox="0 0 1024 1024" version="1.1" xmlns="http://www.w3.org/2000/svg" p-id="2413" xmlns:xlink="http://www.w3.org/1999/xlink" width="32" height="32"><defs><style type="text/css">@font-face { font-family: feedback-iconfont; src: url("//at.alicdn.com/t/font_1031158_u69w8yhxdu.woff2?t=1630033759944") format("woff2"), url("//at.alicdn.com/t/font_1031158_u69w8yhxdu.woff?t=1630033759944") format("woff"), url("//at.alicdn.com/t/font_1031158_u69w8yhxdu.ttf?t=1630033759944") format("truetype"); }
</style></defs><path d="M954.625024 272.384c-18.944-3.584-38.4-1.024-55.296 7.68l-137.728 69.12c-2.56 1.024-5.632 0.512-7.168-2.048l-171.008-248.32c-26.112-37.888-77.312-48.64-116.224-24.576l-4.096 2.56c-8.192 5.632-15.36 12.8-21.504 20.992L265.473024 347.136c-1.536 2.56-4.608 3.072-7.168 2.048L125.697024 281.088c-42.496-21.504-94.208-4.608-116.224 37.888-8.704 17.408-11.776 37.376-7.68 56.32L97.537024 855.552c12.288 61.952 66.56 107.008 130.048 107.008h569.856c62.976 0 117.76-44.544 130.048-107.008l95.744-481.28c8.704-46.592-21.504-92.16-68.608-101.888zM614.657024 775.68H409.857024c-22.528 0-40.96-18.432-40.96-40.96s18.432-40.96 40.96-40.96h204.8c22.528 0 40.96 18.432 40.96 40.96s-18.432 40.96-40.96 40.96z" p-id="2414" fill="#2854A1"></path></svg>