<?xml version="1.0" encoding="UTF-8" standalone="no"?>
<!-- Created with Inkscape (http://www.inkscape.org/) -->

<svg
   width="79.999931mm"
   height="79.985374mm"
   viewBox="0 0 79.999931 79.985374"
   version="1.1"
   id="svg125"
   xmlns="http://www.w3.org/2000/svg"
   xmlns:svg="http://www.w3.org/2000/svg">
  <defs
     id="defs122" />
  <g
     id="layer1"
     transform="translate(-66.171,-84.203416)">
    <path
       style="fill:#417505;fill-rule:evenodd;stroke:none;stroke-width:0.0401937"
       id="path4"
       d="m 101.08714,84.322205 c -3.153197,0.41725 -6.077014,1.140087 -8.979534,2.219808 -0.776462,0.28879 -2.271836,0.904973 -2.41006,0.992997 -0.04422,0.02586 0.384502,0.795311 1.880512,3.383309 1.064485,1.841563 1.927729,3.367557 1.918324,3.391112 -0.01136,0.02856 -6.589454,3.851455 -6.863937,3.987903 -0.01344,0.0064 -0.900053,-1.50513 -1.969492,-3.360003 l -1.944382,-3.372456 -0.100576,0.06342 c -0.363685,0.22952 -1.762429,1.333589 -2.612594,2.06246 -2.296566,1.968891 -4.727393,4.595233 -6.298823,6.805425 l -0.169221,0.23813 2.058414,1.19122 c 1.132102,0.65517 2.542179,1.46914 3.133551,1.80881 l 1.075178,0.61758 -0.001,0.56704 -0.0011,0.56702 -1.742163,3.01454 c -1.187119,2.05414 -1.762128,3.01289 -1.804869,3.00943 -0.03318,-0.003 -1.557545,-0.86811 -3.384595,-1.92282 -1.827083,-1.05474 -3.327272,-1.91154 -3.333796,-1.90407 -0.08398,0.0964 -0.744225,1.70695 -1.125097,2.74424 -1.101559,3.00009 -1.853134,6.23883 -2.213522,9.53851 l -0.02614,0.25107 h 3.902741 3.902742 v 3.97917 3.97919 H 70.07373 66.171 l 0.02614,0.25106 c 0.440971,4.03833 1.438418,7.86125 3.019399,11.57323 0.167759,0.39373 0.312878,0.71602 0.322641,0.71602 0.0094,0 1.510637,-0.86138 3.335164,-1.91413 1.824554,-1.0528 3.34569,-1.91651 3.380332,-1.91926 0.07162,-0.006 4.049127,6.84798 3.99965,6.89193 -0.0152,0.0144 -0.987725,0.57762 -2.159368,1.25206 -1.171653,0.6744 -2.645763,1.52375 -3.275796,1.88741 -0.630043,0.36352 -1.177882,0.67904 -1.217396,0.70083 -0.06392,0.0336 -0.02994,0.095 0.297496,0.53949 2.285292,3.09204 5.171571,5.97943 8.31014,8.31319 l 0.497086,0.36955 0.22808,-0.3935 c 0.125536,-0.21653 0.939967,-1.62805 1.810046,-3.13685 l 1.581944,-2.74323 0.566692,6.4e-4 0.566698,6.3e-4 3.014532,1.74484 c 1.657992,0.95965 3.014543,1.7688 3.014543,1.79805 0,0.028 -0.866031,1.5519 -1.924528,3.38366 -1.498468,2.59313 -1.912223,3.33829 -1.869006,3.36577 0.12856,0.0818 1.603247,0.69228 2.346558,0.97131 2.437388,0.91496 5.064904,1.61317 7.656907,2.03477 0.673336,0.1096 2.289536,0.32608 2.433546,0.32608 0.0507,0 0.0583,-0.51416 0.0583,-3.8988 v -3.89879 h 3.97918 3.97919 v 3.89879 c 0,3.38464 0.007,3.8988 0.0583,3.8988 0.12554,0 1.72252,-0.21093 2.30843,-0.30509 2.73453,-0.43888 5.36116,-1.13584 7.87397,-2.08936 0.73157,-0.27763 2.1336,-0.86067 2.25454,-0.93755 0.0446,-0.0266 -0.37258,-0.77553 -1.86901,-3.36423 -1.05843,-1.8309 -1.92443,-3.35368 -1.92443,-3.38392 0,-0.0442 6.06814,-3.59856 6.73832,-3.94864 l 0.14656,-0.0768 0.59446,1.03372 c 0.32698,0.56851 1.18485,2.05559 1.9064,3.30463 0.72157,1.24901 1.33017,2.30411 1.35252,2.34461 0.035,0.0662 0.0973,0.0298 0.59981,-0.34405 3.11939,-2.33005 5.92515,-5.1362 8.20407,-8.20538 l 0.41408,-0.55752 -1.11731,-0.64829 c -0.61444,-0.35664 -2.02512,-1.17275 -3.13479,-1.81382 l -2.0172,-1.16552 v -0.5627 -0.56272 l 1.73081,-2.99445 c 0.952,-1.64693 1.74696,-3.01075 1.76656,-3.03073 0.0378,-0.0386 0.20806,0.0552 4.12704,2.32008 1.44127,0.833 2.62876,1.51454 2.63886,1.51454 0.01,0 0.15536,-0.3221 0.32318,-0.71602 1.57723,-3.70331 2.57939,-7.54442 3.01939,-11.57323 l 0.0272,-0.25112 h -3.90264 -3.90271 v -3.97918 -3.97917 h 3.89879 c 3.09242,0 3.89872,-0.0102 3.89842,-0.0502 0,-0.0267 -0.0269,-0.28547 -0.0619,-0.57276 -0.42328,-3.59649 -1.30898,-7.08549 -2.6325,-10.37001 -0.29425,-0.73015 -0.62483,-1.50412 -0.65576,-1.53507 -0.01,-0.0102 -1.25483,0.69439 -2.76551,1.5661 -1.51072,0.87174 -3.02342,1.7441 -3.36162,1.93868 -0.36452,0.20958 -0.62952,0.33877 -0.65086,0.31749 -0.0272,-0.0272 -3.34016,-5.747 -3.86497,-6.67347 l -0.11696,-0.20624 2.80465,-1.61876 c 1.54254,-0.8903 3.06304,-1.76772 3.37885,-1.9498 l 0.57422,-0.33099 -0.37037,-0.49676 c -2.31337,-3.102508 -5.05366,-5.860206 -8.08737,-8.139277 l -0.71809,-0.539422 -0.17011,0.292752 c -0.19949,0.343142 -2.33168,4.034337 -2.99573,5.186249 l -0.45755,0.793823 -0.56504,-4.03e-4 -0.56505,-3.97e-4 -3.01453,-1.743528 c -1.97168,-1.140344 -3.01289,-1.764356 -3.00972,-1.803695 0.003,-0.03178 0.86843,-1.556629 1.92396,-3.385568 1.48392,-2.571164 1.90672,-3.333272 1.86419,-3.360357 -0.13808,-0.08802 -1.63355,-0.704167 -2.41006,-0.992993 -2.94834,-1.096766 -5.96552,-1.836292 -9.13075,-2.237962 -0.43697,-0.05546 -0.83028,-0.100896 -0.87422,-0.100896 -0.0792,0 -0.0799,0.03362 -0.0799,3.89879 v 3.89881 h -3.97895 -3.97919 v -3.898799 -3.898795 l -0.13054,0.0038 c -0.0718,0.0019 -0.51046,0.05398 -0.97471,0.1152 m -5.546744,15.830998 c -2.300737,1.01288 -4.608586,2.47027 -6.531488,4.12454 -2.523732,2.17114 -4.624218,4.83624 -6.204847,7.87268 l -0.226052,0.43434 v 9.2824 9.28236 H 89.511 96.444443 v -15.67556 c 0,-12.51389 -0.0096,-15.675501 -0.05016,-15.675146 -0.02672,2.53e-4 -0.411955,0.15968 -0.854122,0.354196 m 3.677729,7.38256 v 6.93343 h 15.67994 15.67997 l -0.0248,-0.10233 c -0.0925,-0.36818 -0.94165,-2.12525 -1.54355,-3.19372 -2.06019,-3.65707 -5.15679,-6.89798 -8.78127,-9.19048 -0.55078,-0.34848 -1.73697,-1.0272 -2.22758,-1.27475 l -0.2096,-0.10561 h -9.2861 -9.286095 v 6.93343 m 0,16.62013 v 6.91338 h 6.913335 6.91333 v -6.91335 -6.91333 h -6.91329 -6.913331 v 6.91333 m 16.680421,8.76225 c 0,11.976 0.0106,15.6756 0.0474,15.6756 0.0792,0 0.97856,-0.39416 1.70125,-0.74578 1.61341,-0.78478 3.27078,-1.81181 4.62228,-2.8643 2.02171,-1.57446 3.90267,-3.53587 5.34462,-5.57321 0.6867,-0.97029 1.63278,-2.53494 2.01708,-3.33597 l 0.13456,-0.2802 v -9.27585 -9.27584 h -6.93421 -6.93344 v 15.67558 m -34.124544,1.04926 c 0,0.0782 0.391363,0.97792 0.736551,1.69349 2.098558,4.34977 5.495737,8.157 9.57316,10.72858 0.713124,0.44961 1.435639,0.86169 2.059253,1.17417 l 0.451516,0.22615 h 9.265314 9.26536 v -6.93337 -6.93344 H 97.449769 c -11.413994,0 -15.675586,0.0128 -15.675586,0.0461" />
  </g>
</svg>
