<?xml version="1.0" standalone="no"?><!DOCTYPE svg PUBLIC "-//W3C//DTD SVG 1.1//EN" "http://www.w3.org/Graphics/SVG/1.1/DTD/svg11.dtd"><svg t="1653035516306" class="icon" viewBox="0 0 1024 1024" version="1.1" xmlns="http://www.w3.org/2000/svg" p-id="2199" xmlns:xlink="http://www.w3.org/1999/xlink" width="32" height="32"><defs><style type="text/css">@font-face { font-family: feedback-iconfont; src: url("//at.alicdn.com/t/font_1031158_u69w8yhxdu.woff2?t=1630033759944") format("woff2"), url("//at.alicdn.com/t/font_1031158_u69w8yhxdu.woff?t=1630033759944") format("woff"), url("//at.alicdn.com/t/font_1031158_u69w8yhxdu.ttf?t=1630033759944") format("truetype"); }
</style></defs><path d="M921.6 409.6c0-226.304-183.296-409.6-409.6-409.6S102.4 183.296 102.4 409.6c0 167.936 101.376 312.32 245.76 375.808-62.464 43.008-102.4 112.64-102.4 197.632v0.512c0 22.528 18.432 40.448 40.96 40.448h1.024c22.016 0 39.936-18.432 39.936-40.448v-0.512c0-101.376 82.432-163.84 184.32-163.84 101.376 0 184.32 61.952 184.32 163.84v0.512c0 22.016 17.408 40.448 39.936 40.448 23.04 0 41.984-18.944 41.984-41.984v-0.512c0-8.192-0.512-16.384-1.024-24.576-7.168-74.752-45.568-133.632-101.888-171.52C820.224 722.432 921.6 578.048 921.6 409.6z m-288.256 198.144c-45.056 34.816-87.552 47.616-124.928 47.616-55.296 0-99.328-27.648-120.832-50.688-11.776-12.288-10.752-31.744 1.536-43.52s31.744-10.752 43.52 1.536c7.168 7.168 71.168 68.608 163.84-3.072 13.312-10.24 32.768-8.192 43.008 5.632s7.168 32.256-6.144 42.496z" p-id="2200" fill="#2854A1"></path></svg>