<?xml version="1.0" standalone="no"?><!DOCTYPE svg PUBLIC "-//W3C//DTD SVG 1.1//EN" "http://www.w3.org/Graphics/SVG/1.1/DTD/svg11.dtd"><svg t="1653035316391" class="icon" viewBox="0 0 1024 1024" version="1.1" xmlns="http://www.w3.org/2000/svg" p-id="1869" xmlns:xlink="http://www.w3.org/1999/xlink" width="32" height="32"><defs><style type="text/css">@font-face { font-family: feedback-iconfont; src: url("//at.alicdn.com/t/font_1031158_u69w8yhxdu.woff2?t=1630033759944") format("woff2"), url("//at.alicdn.com/t/font_1031158_u69w8yhxdu.woff?t=1630033759944") format("woff"), url("//at.alicdn.com/t/font_1031158_u69w8yhxdu.ttf?t=1630033759944") format("truetype"); }
</style></defs><path d="M844.8 0v319.488c-0.512 17.408-14.848 29.696-30.72 29.696-4.608 0-9.216-1.024-13.824-3.072l-64.512-32.256c-4.608-2.048-9.216-3.072-13.824-3.072s-9.728 1.024-13.824 3.072l-64.512 32.256c-4.608 2.048-9.216 3.072-13.824 3.072-15.872 0-30.72-12.8-30.72-30.72V0H184.32C128 0 81.92 46.08 81.92 102.4v819.2c0 56.32 46.08 102.4 102.4 102.4h655.36c56.32 0 102.4-46.08 102.4-102.4V102.4c0-54.784-43.52-99.328-97.28-102.4zM286.72 389.12h204.8c22.528 0 40.96 18.432 40.96 40.96s-18.432 40.96-40.96 40.96H286.72c-22.528 0-40.96-18.432-40.96-40.96s18.432-40.96 40.96-40.96z m368.64 409.6H286.72c-22.528 0-40.96-18.432-40.96-40.96s18.432-40.96 40.96-40.96h368.64c22.528 0 40.96 18.432 40.96 40.96s-18.432 40.96-40.96 40.96z m0-163.84H286.72c-22.528 0-40.96-18.432-40.96-40.96s18.432-40.96 40.96-40.96h368.64c22.528 0 40.96 18.432 40.96 40.96s-18.432 40.96-40.96 40.96z" p-id="1870" fill="#2854A1"></path></svg>